<svg
   width="1370.292"
   height="163.677"
   viewBox="0 0 1370.292 163.677"
   version="1.1"
   id="logo"
   inkscape:version="1.3.2 (091e20e, 2023-11-25, custom)"
   sodipodi:docname="icon.svg"
   inkscape:export-filename="ispeedCalendar.svg"
   inkscape:export-xdpi="96"
   inkscape:export-ydpi="96"
   xmlns:inkscape="http://www.inkscape.org/namespaces/inkscape"
   xmlns:sodipodi="http://sodipodi.sourceforge.net/DTD/sodipodi-0.dtd"
   xmlns:xlink="http://www.w3.org/1999/xlink"
   xmlns="http://www.w3.org/2000/svg"
   xmlns:svg="http://www.w3.org/2000/svg">
  <defs
     id="defs1">
    <linearGradient
       id="linearGradient1"
       inkscape:collect="always">
      <stop
         style="stop-color:#a9e3b6;stop-opacity:1;"
         offset="0"
         id="stop1" />
      <stop
         style="stop-color:#a9d3e3;stop-opacity:1;"
         offset="1"
         id="stop2" />
    </linearGradient>
    <linearGradient
       inkscape:collect="always"
       xlink:href="#linearGradient1"
       id="linearGradient2"
       x1="11.416521"
       y1="138.85574"
       x2="2337.7471"
       y2="138.85574"
       gradientUnits="userSpaceOnUse"
       gradientTransform="matrix(0.58903525,0,0,0.58903525,-6.7247333,0.04756691)" />
  </defs>
  <g
     inkscape:label="Layer 1"
     inkscape:groupmode="layer"
     id="layer1">
    <path
       style="font-size:160.732px;font-family:Orbitron;-inkscape-font-specification:'Orbitron, Normal';stroke:url(#linearGradient2);stroke-width:2.94518"
       d="m 20.760437,125.23608 q -5.304156,0 -9.804651,-2.57172 -4.3397643,-2.57171 -6.9114762,-6.91147 -2.5717119,-4.5005 -2.5717119,-9.80465 v -4.5005 H 14.491889 v 4.5005 q 0,2.57171 1.768052,4.50049 1.928784,1.76805 4.500496,1.76805 h 77.151358 q 2.571715,0 4.339765,-1.76805 1.92878,-1.92878 1.92878,-4.50049 V 80.070386 q 0,-2.571712 -1.92878,-4.339764 -1.76805,-1.768052 -4.339765,-1.768052 H 20.760437 q -5.304156,0 -9.804651,-2.571712 Q 6.6160217,68.658414 4.0443098,64.31865 1.4725979,59.978887 1.4725979,54.674731 V 28.79688 q 0,-5.304156 2.5717119,-9.64392 2.5717119,-4.500496 6.9114762,-7.072208 4.500495,-2.5717118 9.804651,-2.5717118 h 77.151358 q 5.304155,0 9.643915,2.5717118 4.5005,2.571712 7.07221,7.072208 2.57171,4.339764 2.57171,9.64392 v 4.500495 H 104.18034 V 28.79688 q 0,-2.571712 -1.92878,-4.339764 -1.76805,-1.928784 -4.339765,-1.928784 H 20.760437 q -2.571712,0 -4.500496,1.928784 -1.768052,1.768052 -1.768052,4.339764 v 25.877851 q 0,2.571712 1.768052,4.339764 1.928784,1.768052 4.500496,1.768052 h 77.151358 q 5.304155,0 9.643915,2.732443 4.5005,2.571712 7.07221,6.911476 2.57171,4.339764 2.57171,9.64392 v 25.877854 q 0,5.30415 -2.57171,9.80465 -2.57171,4.33976 -7.07221,6.91147 -4.33976,2.57172 -9.643915,2.57172 z m 113.316133,36.96836 v 0 -130.192921 h 75.54404 q 5.30416,0 9.64392,2.732444 4.5005,2.571712 7.07221,7.072208 2.73244,4.339764 2.73244,9.64392 v 54.327419 q 0,5.30415 -2.73244,9.80465 -2.57171,4.33976 -7.07221,7.0722 -4.33976,2.57172 -9.64392,2.57172 H 147.2566 v 36.96836 z m 19.60931,-50.14839 h 55.93473 q 2.57171,0 4.33977,-1.76805 1.92878,-1.92878 1.92878,-4.50049 V 51.460091 q 0,-2.571712 -1.92878,-4.339764 -1.76806,-1.928784 -4.33977,-1.928784 h -55.93473 q -2.57171,0 -4.5005,1.928784 -1.92878,1.768052 -1.92878,4.339764 v 54.327419 q 0,2.57171 1.92878,4.50049 1.92879,1.76805 4.5005,1.76805 z m 106.08304,13.18003 q -5.30416,0 -9.80465,-2.57172 -4.33977,-2.73244 -7.07221,-7.0722 -2.57171,-4.5005 -2.57171,-9.80465 V 51.460091 q 0,-5.304156 2.57171,-9.64392 2.73244,-4.500496 7.07221,-7.072208 4.50049,-2.732444 9.80465,-2.732444 h 55.93473 q 5.46489,0 9.80465,2.732444 4.5005,2.571712 7.07221,7.072208 2.73244,4.339764 2.73244,9.64392 V 85.21381 h -81.81258 v 20.5737 q 0,2.57171 1.76805,4.50049 1.92879,1.76805 4.5005,1.76805 h 75.54403 v 13.18003 z M 253.50037,72.033786 H 321.9722 V 51.460091 q 0,-2.571712 -1.92878,-4.339764 -1.76806,-1.928784 -4.33977,-1.928784 h -55.93473 q -2.57171,0 -4.5005,1.928784 -1.76805,1.768052 -1.76805,4.339764 z M 368.5845,125.23608 q -5.30416,0 -9.80465,-2.57172 -4.33977,-2.73244 -7.07221,-7.0722 -2.57171,-4.5005 -2.57171,-9.80465 V 51.460091 q 0,-5.304156 2.57171,-9.64392 2.73244,-4.500496 7.07221,-7.072208 4.50049,-2.732444 9.80465,-2.732444 h 55.93473 q 5.46489,0 9.80466,2.732444 4.50049,2.571712 7.0722,7.072208 2.73245,4.339764 2.73245,9.64392 V 85.21381 h -81.81259 v 20.5737 q 0,2.57171 1.76805,4.50049 1.92879,1.76805 4.5005,1.76805 h 75.54404 v 13.18003 z m -6.26855,-53.202294 h 68.47183 V 51.460091 q 0,-2.571712 -1.92878,-4.339764 -1.76805,-1.928784 -4.33977,-1.928784 H 368.5845 q -2.57171,0 -4.5005,1.928784 -1.76805,1.768052 -1.76805,4.339764 z m 113.15523,53.202294 q -5.46489,0 -9.96539,-2.57172 -4.33976,-2.73244 -7.07221,-7.0722 -2.57171,-4.5005 -2.57171,-9.80465 V 51.460091 q 0,-5.304156 2.57171,-9.64392 2.73245,-4.500496 7.07221,-7.072208 4.5005,-2.732444 9.96539,-2.732444 h 62.20328 V 1.4724405 h 13.18002 V 125.23608 Z m 0,-13.18003 h 55.93473 q 2.57171,0 4.33976,-1.76805 1.92879,-1.92878 1.92879,-4.50049 V 51.460091 q 0,-2.571712 -1.92879,-4.339764 -1.76805,-1.928784 -4.33976,-1.928784 h -55.93473 q -2.57172,0 -4.5005,1.928784 -1.76805,1.768052 -1.76805,4.339764 v 54.327419 q 0,2.57171 1.76805,4.50049 1.92878,1.76805 4.5005,1.76805 z m 112.19088,13.18003 q -5.30416,0 -9.80465,-2.57172 -4.33977,-2.57171 -6.91148,-6.91147 -2.57171,-4.5005 -2.57171,-9.80465 V 28.79688 q 0,-5.304156 2.57171,-9.64392 2.57171,-4.500496 6.91148,-7.072208 4.50049,-2.5717118 9.80465,-2.5717118 h 96.11773 V 22.528332 h -96.11773 q -2.57171,0 -4.5005,1.928784 -1.76805,1.768052 -1.76805,4.339764 v 77.15136 q 0,2.57171 1.76805,4.50049 1.92879,1.76805 4.5005,1.76805 h 96.11773 v 13.0193 z m 131.63963,0 q -5.30416,0 -9.80465,-2.57172 -4.33977,-2.73244 -7.07221,-7.0722 -2.57171,-4.5005 -2.57171,-9.80465 V 72.033786 h 81.65185 V 51.460091 q 0,-2.571712 -1.92878,-4.339764 -1.76806,-1.928784 -4.33977,-1.928784 h -75.3833 V 32.011519 h 75.3833 q 5.46489,0 9.80465,2.732444 4.5005,2.571712 7.07221,7.072208 2.73245,4.339764 2.73245,9.64392 v 73.775989 z m 0,-13.18003 h 62.20328 V 85.21381 h -68.47183 v 20.5737 q 0,2.57171 1.76805,4.50049 1.92879,1.76805 4.5005,1.76805 z m 109.94067,13.18003 q -5.30415,0 -9.80465,-2.57172 -4.33976,-2.73244 -7.07221,-7.0722 -2.57171,-4.5005 -2.57171,-9.80465 V 1.4724405 h 13.18002 V 105.78751 q 0,2.57171 1.76806,4.50049 1.92878,1.76805 4.50049,1.76805 h 15.75174 v 13.18003 z m 45.96946,0 q -5.30416,0 -9.80465,-2.57172 -4.33977,-2.73244 -7.07221,-7.0722 -2.57171,-4.5005 -2.57171,-9.80465 V 51.460091 q 0,-5.304156 2.57171,-9.64392 2.73244,-4.500496 7.07221,-7.072208 4.50049,-2.732444 9.80465,-2.732444 h 55.93473 q 5.46489,0 9.80465,2.732444 4.5005,2.571712 7.07221,7.072208 2.73245,4.339764 2.73245,9.64392 V 85.21381 h -81.81259 v 20.5737 q 0,2.57171 1.76805,4.50049 1.92879,1.76805 4.5005,1.76805 h 75.54404 v 13.18003 z M 868.94327,72.033786 H 937.4151 V 51.460091 q 0,-2.571712 -1.92878,-4.339764 -1.76806,-1.928784 -4.33977,-1.928784 h -55.93473 q -2.57171,0 -4.5005,1.928784 -1.76805,1.768052 -1.76805,4.339764 z m 98.52861,53.202294 v 0 -93.224561 h 75.54402 q 5.3042,0 9.6439,2.732444 4.5005,2.571712 7.0722,7.072208 2.7325,4.339764 2.7325,9.64392 v 73.775989 h -13.18 V 51.460091 q 0,-2.571712 -1.9288,-4.339764 -1.7681,-1.928784 -4.3398,-1.928784 h -55.93471 q -2.57171,0 -4.5005,1.928784 -1.92878,1.768052 -1.92878,4.339764 v 73.775989 z m 126.49602,0 q -5.4649,0 -9.9654,-2.57172 -4.3398,-2.73244 -7.0722,-7.0722 -2.5717,-4.5005 -2.5717,-9.80465 V 51.460091 q 0,-5.304156 2.5717,-9.64392 2.7324,-4.500496 7.0722,-7.072208 4.5005,-2.732444 9.9654,-2.732444 h 62.2033 V 1.4724405 h 13.18 V 125.23608 Z m 0,-13.18003 h 55.9347 q 2.5717,0 4.3398,-1.76805 1.9288,-1.92878 1.9288,-4.50049 V 51.460091 q 0,-2.571712 -1.9288,-4.339764 -1.7681,-1.928784 -4.3398,-1.928784 h -55.9347 q -2.5717,0 -4.5005,1.928784 -1.7681,1.768052 -1.7681,4.339764 v 54.327419 q 0,2.57171 1.7681,4.50049 1.9288,1.76805 4.5005,1.76805 z m 111.7086,13.18003 q -5.3042,0 -9.8046,-2.57172 -4.3398,-2.73244 -7.0723,-7.0722 -2.5717,-4.5005 -2.5717,-9.80465 V 72.033786 h 81.6519 V 51.460091 q 0,-2.571712 -1.9288,-4.339764 -1.768,-1.928784 -4.3398,-1.928784 h -75.3833 V 32.011519 h 75.3833 q 5.4649,0 9.8047,2.732444 4.5005,2.571712 7.0722,7.072208 2.7324,4.339764 2.7324,9.64392 v 73.775989 z m 0,-13.18003 h 62.2033 V 85.21381 h -68.4718 v 20.5737 q 0,2.57171 1.768,4.50049 1.9288,1.76805 4.5005,1.76805 z m 91.2959,13.18003 v 0 -73.775989 q 0,-5.304156 2.5718,-9.64392 2.7324,-4.500496 7.0722,-7.072208 4.5005,-2.732444 9.8046,-2.732444 h 52.3986 v 13.180024 h -52.3986 q -2.5717,0 -4.5005,1.928784 -1.768,1.768052 -1.768,4.339764 v 73.775989 z"
       id="logo_text"
       aria-label="SpeedCalendar" />
  </g>
</svg>
